<?xml version="1.0" encoding="UTF-8" standalone="no"?>
<svg
   xmlns:dc="http://purl.org/dc/elements/1.1/"
   xmlns:cc="http://creativecommons.org/ns#"
   xmlns:rdf="http://www.w3.org/1999/02/22-rdf-syntax-ns#"
   xmlns:svg="http://www.w3.org/2000/svg"
   xmlns="http://www.w3.org/2000/svg"
   xmlns:sodipodi="http://sodipodi.sourceforge.net/DTD/sodipodi-0.dtd"
   xmlns:inkscape="http://www.inkscape.org/namespaces/inkscape"
   width="48px"
   height="48px"
   viewBox="0 0 48 48"
   version="1"
   enable-background="new 0 0 48 48"
   id="svg34"
   sodipodi:docname="safe-staking-block.svg"
   inkscape:version="1.0.2 (1.0.2+r75+1)">
  <metadata
     id="metadata40">
    <rdf:RDF>
      <cc:Work
         rdf:about="">
        <dc:format>image/svg+xml</dc:format>
        <dc:type
           rdf:resource="http://purl.org/dc/dcmitype/StillImage" />
        <dc:title></dc:title>
      </cc:Work>
    </rdf:RDF>
  </metadata>
  <defs
     id="defs38" />
  <sodipodi:namedview
     pagecolor="#ffffff"
     bordercolor="#666666"
     borderopacity="1"
     objecttolerance="10"
     gridtolerance="10"
     guidetolerance="10"
     inkscape:pageopacity="0"
     inkscape:pageshadow="2"
     inkscape:window-width="1360"
     inkscape:window-height="705"
     id="namedview36"
     showgrid="false"
     inkscape:zoom="9.9584205"
     inkscape:cx="37.264797"
     inkscape:cy="26.833531"
     inkscape:window-x="0"
     inkscape:window-y="30"
     inkscape:window-maximized="1"
     inkscape:current-layer="svg34" />
  <rect
     x="8"
     y="39"
     fill="#455A64"
     width="6"
     height="3"
     id="rect2" />
  <rect
     x="34"
     y="39"
     fill="#455A64"
     width="6"
     height="3"
     id="rect4" />
  <path
     fill="#78909C"
     d="M40,41H8c-2.2,0-4-1.8-4-4V11c0-2.2,1.8-4,4-4h32c2.2,0,4,1.8,4,4v26C44,39.2,42.2,41,40,41z"
     id="path6" />
  <path
     fill="#90A4AE"
     d="M40,38H8c-0.6,0-1-0.4-1-1V11c0-0.6,0.4-1,1-1h32c0.6,0,1,0.4,1,1v26C41,37.6,40.6,38,40,38z"
     id="path8" />
  <path
     fill="#37474F"
     d="M29,14c-5.5,0-10,4.5-10,10c0,5.5,4.5,10,10,10s10-4.5,10-10C39,18.5,34.5,14,29,14z M29,31 c-3.9,0-7-3.1-7-7c0-3.9,3.1-7,7-7s7,3.1,7,7C36,27.9,32.9,31,29,31z"
     id="path10" />
  <g
     fill="#B0BEC5"
     id="g28">
    <path
       d="M35.3,19.1l0.4-0.4c0.4-0.4,0.4-1,0-1.4s-1-0.4-1.4,0l-0.4,0.4C34.4,18.1,34.9,18.6,35.3,19.1z"
       id="path12" />
    <path
       d="M22.7,19.1c0.4-0.5,0.9-1,1.4-1.4l-0.4-0.4c-0.4-0.4-1-0.4-1.4,0s-0.4,1,0,1.4L22.7,19.1z"
       id="path14" />
    <path
       d="M21,24c0-0.3,0-0.7,0.1-1h-0.6c-0.6,0-1,0.4-1,1s0.4,1,1,1h0.6C21,24.7,21,24.3,21,24z"
       id="path16" />
    <path
       d="M29,16c0.3,0,0.7,0,1,0.1v-0.6c0-0.6-0.4-1-1-1s-1,0.4-1,1v0.6C28.3,16,28.7,16,29,16z"
       id="path18" />
    <path
       d="M35.3,28.9c-0.4,0.5-0.9,1-1.4,1.4l0.4,0.4c0.2,0.2,0.5,0.3,0.7,0.3s0.5-0.1,0.7-0.3c0.4-0.4,0.4-1,0-1.4 L35.3,28.9z"
       id="path20" />
    <path
       d="M22.7,28.9l-0.4,0.4c-0.4,0.4-0.4,1,0,1.4c0.2,0.2,0.5,0.3,0.7,0.3s0.5-0.1,0.7-0.3l0.4-0.4 C23.6,29.9,23.1,29.4,22.7,28.9z"
       id="path22" />
    <path
       d="M37.5,23h-0.6c0,0.3,0.1,0.7,0.1,1s0,0.7-0.1,1h0.6c0.6,0,1-0.4,1-1S38.1,23,37.5,23z"
       id="path24" />
    <path
       d="M29,32c-0.3,0-0.7,0-1-0.1v0.6c0,0.6,0.4,1,1,1s1-0.4,1-1v-0.6C29.7,32,29.3,32,29,32z"
       id="path26" />
  </g>
  <path
     fill="#455A64"
     d="M12,20c-1.1,0-2,0.9-2,2v8c0,1.1,0.9,2,2,2s2-0.9,2-2v-8C14,20.9,13.1,20,12,20z"
     id="path30" />
  <path
     fill="#CFD8DC"
     d="M12,18c-1.1,0-2,0.9-2,2v8c0,1.1,0.9,2,2,2s2-0.9,2-2v-8C14,18.9,13.1,18,12,18z"
     id="path32" />
  <g
     id="g1291"
     transform="matrix(0.47107867,0,0,0.47107867,26.556957,27.161022)">
    <g
       fill="#ffa000"
       id="g1197">
      <path
         d="m 38,13 c -3.3,0 -6,-0.9 -6,-2 0,0.4 0,1.6 0,2 0,1.1 2.7,2 6,2 3.3,0 6,-0.9 6,-2 0,-0.4 0,-1.6 0,-2 0,1.1 -2.7,2 -6,2 z"
         id="path1175" />
      <path
         d="m 38,10 c -3.3,0 -6,-0.9 -6,-2 0,0.4 0,1.6 0,2 0,1.1 2.7,2 6,2 3.3,0 6,-0.9 6,-2 0,-0.4 0,-1.6 0,-2 0,1.1 -2.7,2 -6,2 z"
         id="path1177" />
      <path
         d="m 38,16 c -3.3,0 -6,-0.9 -6,-2 0,0.4 0,1.6 0,2 0,1.1 2.7,2 6,2 3.3,0 6,-0.9 6,-2 0,-0.4 0,-1.6 0,-2 0,1.1 -2.7,2 -6,2 z"
         id="path1179" />
      <path
         d="m 38,19 c -3.3,0 -6,-0.9 -6,-2 0,0.4 0,1.6 0,2 0,1.1 2.7,2 6,2 3.3,0 6,-0.9 6,-2 0,-0.4 0,-1.6 0,-2 0,1.1 -2.7,2 -6,2 z"
         id="path1181" />
      <path
         d="m 38,22 c -3.3,0 -6,-0.9 -6,-2 0,0.4 0,1.6 0,2 0,1.1 2.7,2 6,2 3.3,0 6,-0.9 6,-2 0,-0.4 0,-1.6 0,-2 0,1.1 -2.7,2 -6,2 z"
         id="path1183" />
      <path
         d="m 38,25 c -3.3,0 -6,-0.9 -6,-2 0,0.4 0,1.6 0,2 0,1.1 2.7,2 6,2 3.3,0 6,-0.9 6,-2 0,-0.4 0,-1.6 0,-2 0,1.1 -2.7,2 -6,2 z"
         id="path1185" />
      <path
         d="m 38,28 c -3.3,0 -6,-0.9 -6,-2 0,0.4 0,1.6 0,2 0,1.1 2.7,2 6,2 3.3,0 6,-0.9 6,-2 0,-0.4 0,-1.6 0,-2 0,1.1 -2.7,2 -6,2 z"
         id="path1187" />
      <path
         d="m 38,31 c -3.3,0 -6,-0.9 -6,-2 0,0.4 0,1.6 0,2 0,1.1 2.7,2 6,2 3.3,0 6,-0.9 6,-2 0,-0.4 0,-1.6 0,-2 0,1.1 -2.7,2 -6,2 z"
         id="path1189" />
      <path
         d="m 38,34 c -3.3,0 -6,-0.9 -6,-2 0,0.4 0,1.6 0,2 0,1.1 2.7,2 6,2 3.3,0 6,-0.9 6,-2 0,-0.4 0,-1.6 0,-2 0,1.1 -2.7,2 -6,2 z"
         id="path1191" />
      <path
         d="m 38,37 c -3.3,0 -6,-0.9 -6,-2 0,0.4 0,1.6 0,2 0,1.1 2.7,2 6,2 3.3,0 6,-0.9 6,-2 0,-0.4 0,-1.6 0,-2 0,1.1 -2.7,2 -6,2 z"
         id="path1193" />
      <path
         d="m 38,40 c -3.3,0 -6,-0.9 -6,-2 0,0.4 0,1.6 0,2 0,1.1 2.7,2 6,2 3.3,0 6,-0.9 6,-2 0,-0.4 0,-1.6 0,-2 0,1.1 -2.7,2 -6,2 z"
         id="path1195" />
    </g>
    <g
       fill="#ffc107"
       id="g1221">
      <ellipse
         cx="38"
         cy="8"
         rx="6"
         ry="2"
         id="ellipse1199" />
      <path
         d="m 38,12 c -2.8,0 -5.1,-0.6 -5.8,-1.5 -0.1,0.2 -0.2,0.3 -0.2,0.5 0,1.1 2.7,2 6,2 3.3,0 6,-0.9 6,-2 0,-0.2 -0.1,-0.3 -0.2,-0.5 -0.7,0.9 -3,1.5 -5.8,1.5 z"
         id="path1201" />
      <path
         d="m 38,15 c -2.8,0 -5.1,-0.6 -5.8,-1.5 -0.1,0.2 -0.2,0.3 -0.2,0.5 0,1.1 2.7,2 6,2 3.3,0 6,-0.9 6,-2 0,-0.2 -0.1,-0.3 -0.2,-0.5 -0.7,0.9 -3,1.5 -5.8,1.5 z"
         id="path1203" />
      <path
         d="m 38,18 c -2.8,0 -5.1,-0.6 -5.8,-1.5 -0.1,0.2 -0.2,0.3 -0.2,0.5 0,1.1 2.7,2 6,2 3.3,0 6,-0.9 6,-2 0,-0.2 -0.1,-0.3 -0.2,-0.5 -0.7,0.9 -3,1.5 -5.8,1.5 z"
         id="path1205" />
      <path
         d="m 38,21 c -2.8,0 -5.1,-0.6 -5.8,-1.5 -0.1,0.2 -0.2,0.3 -0.2,0.5 0,1.1 2.7,2 6,2 3.3,0 6,-0.9 6,-2 0,-0.2 -0.1,-0.3 -0.2,-0.5 -0.7,0.9 -3,1.5 -5.8,1.5 z"
         id="path1207" />
      <path
         d="m 38,24 c -2.8,0 -5.1,-0.6 -5.8,-1.5 -0.1,0.2 -0.2,0.3 -0.2,0.5 0,1.1 2.7,2 6,2 3.3,0 6,-0.9 6,-2 0,-0.2 -0.1,-0.3 -0.2,-0.5 -0.7,0.9 -3,1.5 -5.8,1.5 z"
         id="path1209" />
      <path
         d="m 38,27 c -2.8,0 -5.1,-0.6 -5.8,-1.5 -0.1,0.2 -0.2,0.3 -0.2,0.5 0,1.1 2.7,2 6,2 3.3,0 6,-0.9 6,-2 0,-0.2 -0.1,-0.3 -0.2,-0.5 -0.7,0.9 -3,1.5 -5.8,1.5 z"
         id="path1211" />
      <path
         d="m 38,30 c -2.8,0 -5.1,-0.6 -5.8,-1.5 -0.1,0.2 -0.2,0.3 -0.2,0.5 0,1.1 2.7,2 6,2 3.3,0 6,-0.9 6,-2 0,-0.2 -0.1,-0.3 -0.2,-0.5 -0.7,0.9 -3,1.5 -5.8,1.5 z"
         id="path1213" />
      <path
         d="m 38,33 c -2.8,0 -5.1,-0.6 -5.8,-1.5 -0.1,0.2 -0.2,0.3 -0.2,0.5 0,1.1 2.7,2 6,2 3.3,0 6,-0.9 6,-2 0,-0.2 -0.1,-0.3 -0.2,-0.5 -0.7,0.9 -3,1.5 -5.8,1.5 z"
         id="path1215" />
      <path
         d="m 38,36 c -2.8,0 -5.1,-0.6 -5.8,-1.5 -0.1,0.2 -0.2,0.3 -0.2,0.5 0,1.1 2.7,2 6,2 3.3,0 6,-0.9 6,-2 0,-0.2 -0.1,-0.3 -0.2,-0.5 -0.7,0.9 -3,1.5 -5.8,1.5 z"
         id="path1217" />
      <path
         d="m 38,39 c -2.8,0 -5.1,-0.6 -5.8,-1.5 -0.1,0.2 -0.2,0.3 -0.2,0.5 0,1.1 2.7,2 6,2 3.3,0 6,-0.9 6,-2 0,-0.2 -0.1,-0.3 -0.2,-0.5 -0.7,0.9 -3,1.5 -5.8,1.5 z"
         id="path1219" />
    </g>
    <g
       fill="#ffa000"
       id="g1241">
      <path
         d="m 10,19 c -3.3,0 -6,-0.9 -6,-2 0,0.4 0,1.6 0,2 0,1.1 2.7,2 6,2 3.3,0 6,-0.9 6,-2 0,-0.4 0,-1.6 0,-2 0,1.1 -2.7,2 -6,2 z"
         id="path1223" />
      <path
         d="m 10,16 c -3.3,0 -6,-0.9 -6,-2 0,0.4 0,1.6 0,2 0,1.1 2.7,2 6,2 3.3,0 6,-0.9 6,-2 0,-0.4 0,-1.6 0,-2 0,1.1 -2.7,2 -6,2 z"
         id="path1225" />
      <path
         d="m 10,22 c -3.3,0 -6,-0.9 -6,-2 0,0.4 0,1.6 0,2 0,1.1 2.7,2 6,2 3.3,0 6,-0.9 6,-2 0,-0.4 0,-1.6 0,-2 0,1.1 -2.7,2 -6,2 z"
         id="path1227" />
      <path
         d="m 10,25 c -3.3,0 -6,-0.9 -6,-2 0,0.4 0,1.6 0,2 0,1.1 2.7,2 6,2 3.3,0 6,-0.9 6,-2 0,-0.4 0,-1.6 0,-2 0,1.1 -2.7,2 -6,2 z"
         id="path1229" />
      <path
         d="m 10,28 c -3.3,0 -6,-0.9 -6,-2 0,0.4 0,1.6 0,2 0,1.1 2.7,2 6,2 3.3,0 6,-0.9 6,-2 0,-0.4 0,-1.6 0,-2 0,1.1 -2.7,2 -6,2 z"
         id="path1231" />
      <path
         d="m 10,31 c -3.3,0 -6,-0.9 -6,-2 0,0.4 0,1.6 0,2 0,1.1 2.7,2 6,2 3.3,0 6,-0.9 6,-2 0,-0.4 0,-1.6 0,-2 0,1.1 -2.7,2 -6,2 z"
         id="path1233" />
      <path
         d="m 10,34 c -3.3,0 -6,-0.9 -6,-2 0,0.4 0,1.6 0,2 0,1.1 2.7,2 6,2 3.3,0 6,-0.9 6,-2 0,-0.4 0,-1.6 0,-2 0,1.1 -2.7,2 -6,2 z"
         id="path1235" />
      <path
         d="m 10,37 c -3.3,0 -6,-0.9 -6,-2 0,0.4 0,1.6 0,2 0,1.1 2.7,2 6,2 3.3,0 6,-0.9 6,-2 0,-0.4 0,-1.6 0,-2 0,1.1 -2.7,2 -6,2 z"
         id="path1237" />
      <path
         d="m 10,40 c -3.3,0 -6,-0.9 -6,-2 0,0.4 0,1.6 0,2 0,1.1 2.7,2 6,2 3.3,0 6,-0.9 6,-2 0,-0.4 0,-1.6 0,-2 0,1.1 -2.7,2 -6,2 z"
         id="path1239" />
    </g>
    <g
       fill="#ffc107"
       id="g1261">
      <ellipse
         cx="10"
         cy="14"
         rx="6"
         ry="2"
         id="ellipse1243" />
      <path
         d="M 10,18 C 7.2,18 4.9,17.4 4.2,16.5 4.1,16.7 4,16.8 4,17 c 0,1.1 2.7,2 6,2 3.3,0 6,-0.9 6,-2 0,-0.2 -0.1,-0.3 -0.2,-0.5 -0.7,0.9 -3,1.5 -5.8,1.5 z"
         id="path1245" />
      <path
         d="M 10,21 C 7.2,21 4.9,20.4 4.2,19.5 4.1,19.7 4,19.8 4,20 c 0,1.1 2.7,2 6,2 3.3,0 6,-0.9 6,-2 0,-0.2 -0.1,-0.3 -0.2,-0.5 -0.7,0.9 -3,1.5 -5.8,1.5 z"
         id="path1247" />
      <path
         d="M 10,24 C 7.2,24 4.9,23.4 4.2,22.5 4.1,22.7 4,22.8 4,23 c 0,1.1 2.7,2 6,2 3.3,0 6,-0.9 6,-2 0,-0.2 -0.1,-0.3 -0.2,-0.5 -0.7,0.9 -3,1.5 -5.8,1.5 z"
         id="path1249" />
      <path
         d="M 10,27 C 7.2,27 4.9,26.4 4.2,25.5 4.1,25.7 4,25.8 4,26 c 0,1.1 2.7,2 6,2 3.3,0 6,-0.9 6,-2 0,-0.2 -0.1,-0.3 -0.2,-0.5 -0.7,0.9 -3,1.5 -5.8,1.5 z"
         id="path1251" />
      <path
         d="M 10,30 C 7.2,30 4.9,29.4 4.2,28.5 4.1,28.7 4,28.8 4,29 c 0,1.1 2.7,2 6,2 3.3,0 6,-0.9 6,-2 0,-0.2 -0.1,-0.3 -0.2,-0.5 -0.7,0.9 -3,1.5 -5.8,1.5 z"
         id="path1253" />
      <path
         d="M 10,33 C 7.2,33 4.9,32.4 4.2,31.5 4.1,31.7 4,31.8 4,32 c 0,1.1 2.7,2 6,2 3.3,0 6,-0.9 6,-2 0,-0.2 -0.1,-0.3 -0.2,-0.5 -0.7,0.9 -3,1.5 -5.8,1.5 z"
         id="path1255" />
      <path
         d="M 10,36 C 7.2,36 4.9,35.4 4.2,34.5 4.1,34.7 4,34.8 4,35 c 0,1.1 2.7,2 6,2 3.3,0 6,-0.9 6,-2 0,-0.2 -0.1,-0.3 -0.2,-0.5 -0.7,0.9 -3,1.5 -5.8,1.5 z"
         id="path1257" />
      <path
         d="M 10,39 C 7.2,39 4.9,38.4 4.2,37.5 4.1,37.7 4,37.8 4,38 c 0,1.1 2.7,2 6,2 3.3,0 6,-0.9 6,-2 0,-0.2 -0.1,-0.3 -0.2,-0.5 -0.7,0.9 -3,1.5 -5.8,1.5 z"
         id="path1259" />
    </g>
    <g
       fill="#ffa000"
       id="g1275">
      <path
         d="m 24,28 c -3.3,0 -6,-0.9 -6,-2 0,0.4 0,1.6 0,2 0,1.1 2.7,2 6,2 3.3,0 6,-0.9 6,-2 0,-0.4 0,-1.6 0,-2 0,1.1 -2.7,2 -6,2 z"
         id="path1263" />
      <path
         d="m 24,25 c -3.3,0 -6,-0.9 -6,-2 0,0.4 0,1.6 0,2 0,1.1 2.7,2 6,2 3.3,0 6,-0.9 6,-2 0,-0.4 0,-1.6 0,-2 0,1.1 -2.7,2 -6,2 z"
         id="path1265" />
      <path
         d="m 24,31 c -3.3,0 -6,-0.9 -6,-2 0,0.4 0,1.6 0,2 0,1.1 2.7,2 6,2 3.3,0 6,-0.9 6,-2 0,-0.4 0,-1.6 0,-2 0,1.1 -2.7,2 -6,2 z"
         id="path1267" />
      <path
         d="m 24,34 c -3.3,0 -6,-0.9 -6,-2 0,0.4 0,1.6 0,2 0,1.1 2.7,2 6,2 3.3,0 6,-0.9 6,-2 0,-0.4 0,-1.6 0,-2 0,1.1 -2.7,2 -6,2 z"
         id="path1269" />
      <path
         d="m 24,37 c -3.3,0 -6,-0.9 -6,-2 0,0.4 0,1.6 0,2 0,1.1 2.7,2 6,2 3.3,0 6,-0.9 6,-2 0,-0.4 0,-1.6 0,-2 0,1.1 -2.7,2 -6,2 z"
         id="path1271" />
      <path
         d="m 24,40 c -3.3,0 -6,-0.9 -6,-2 0,0.4 0,1.6 0,2 0,1.1 2.7,2 6,2 3.3,0 6,-0.9 6,-2 0,-0.4 0,-1.6 0,-2 0,1.1 -2.7,2 -6,2 z"
         id="path1273" />
    </g>
    <g
       fill="#ffc107"
       id="g1289">
      <ellipse
         cx="24"
         cy="23"
         rx="6"
         ry="2"
         id="ellipse1277" />
      <path
         d="m 24,27 c -2.8,0 -5.1,-0.6 -5.8,-1.5 -0.1,0.2 -0.2,0.3 -0.2,0.5 0,1.1 2.7,2 6,2 3.3,0 6,-0.9 6,-2 0,-0.2 -0.1,-0.3 -0.2,-0.5 -0.7,0.9 -3,1.5 -5.8,1.5 z"
         id="path1279" />
      <path
         d="m 24,30 c -2.8,0 -5.1,-0.6 -5.8,-1.5 -0.1,0.2 -0.2,0.3 -0.2,0.5 0,1.1 2.7,2 6,2 3.3,0 6,-0.9 6,-2 0,-0.2 -0.1,-0.3 -0.2,-0.5 -0.7,0.9 -3,1.5 -5.8,1.5 z"
         id="path1281" />
      <path
         d="m 24,33 c -2.8,0 -5.1,-0.6 -5.8,-1.5 -0.1,0.2 -0.2,0.3 -0.2,0.5 0,1.1 2.7,2 6,2 3.3,0 6,-0.9 6,-2 0,-0.2 -0.1,-0.3 -0.2,-0.5 -0.7,0.9 -3,1.5 -5.8,1.5 z"
         id="path1283" />
      <path
         d="m 24,36 c -2.8,0 -5.1,-0.6 -5.8,-1.5 -0.1,0.2 -0.2,0.3 -0.2,0.5 0,1.1 2.7,2 6,2 3.3,0 6,-0.9 6,-2 0,-0.2 -0.1,-0.3 -0.2,-0.5 -0.7,0.9 -3,1.5 -5.8,1.5 z"
         id="path1285" />
      <path
         d="m 24,39 c -2.8,0 -5.1,-0.6 -5.8,-1.5 -0.1,0.2 -0.2,0.3 -0.2,0.5 0,1.1 2.7,2 6,2 3.3,0 6,-0.9 6,-2 0,-0.2 -0.1,-0.3 -0.2,-0.5 -0.7,0.9 -3,1.5 -5.8,1.5 z"
         id="path1287" />
    </g>
  </g>
  <path
     style="fill:#37474f;fill-opacity:1;stroke-width:0.0150358"
     d="m 29.117006,29.855342 c -0.07144,-0.161556 -0.09166,-0.29663 -0.09074,-0.605976 8.64e-4,-0.296196 0.01283,-0.420749 0.07571,-0.789378 0.06644,-0.389505 0.24321,-1.056921 0.353416,-1.334346 0.174482,-0.439237 0.492585,-0.871678 0.858388,-1.166925 0.08042,-0.06491 0.07804,-0.06534 0.222722,0.04078 0.275458,0.202049 1.848789,1.463868 2.089975,1.676166 0.03721,0.03276 0.06428,0.06273 0.06014,0.06662 -0.02626,0.02466 -3.404256,2.123289 -3.500054,2.174453 -0.03243,0.01732 -0.03625,0.01395 -0.06956,-0.0614 z m -0.171604,-0.149993 c -0.224085,-0.298269 -0.557449,-0.985865 -0.835938,-1.724203 -0.197918,-0.524725 -0.58565,-1.701276 -0.678701,-2.059475 -0.0208,-0.08006 -0.05382,-0.196313 -0.07339,-0.258336 -0.05549,-0.175882 -0.220957,-0.776268 -0.345317,-1.253002 l -0.113097,-0.433552 0.252773,-0.393415 c 0.920245,-1.432263 1.474454,-2.452658 1.679541,-3.092335 0.113677,-0.354565 0.109951,-0.345823 0.147337,-0.345823 0.01837,0 0.06349,0.0192 0.100248,0.04267 0.330035,0.210685 0.860332,1.21001 1.457241,2.746117 l 0.116987,0.301062 -0.131951,1.289418 -0.13195,1.289417 -0.08045,0.0711 c -0.583405,0.515573 -0.823864,0.901989 -1.04976,1.68697 -0.220535,0.766351 -0.318229,1.41272 -0.284793,1.884263 0.0077,0.108405 0.02111,0.223608 0.02983,0.256006 0.0087,0.0324 0.01265,0.06212 0.0087,0.06606 -0.0039,0.0039 -0.03423,-0.02889 -0.06732,-0.07294 z m -0.245895,-3.767133 0.04023,-0.03003 0.0039,-1.395434 c 0.0035,-1.282427 0.0018,-1.397668 -0.02112,-1.423017 -0.02332,-0.02577 -0.06021,-0.02758 -0.561892,-0.02758 -0.518835,0 -0.538251,0.0011 -0.576182,0.03088 -0.05248,0.04128 -0.07618,0.131112 -0.05517,0.209144 0.02821,0.104739 0.03299,0.105801 0.477036,0.105801 h 0.395015 l 0.0039,1.257462 0.0039,1.257461 0.05263,0.02902 c 0.06582,0.0363 0.179753,0.02973 0.237934,-0.0137 z m 0.483432,-0.0017 c 0.03612,-0.0269 0.0384,-0.03758 0.0475,-0.222171 0.0053,-0.106652 0.01035,-0.390131 0.0113,-0.629951 9.31e-4,-0.23982 0.0062,-0.715139 0.01168,-1.056263 l 0.0099,-0.620225 h 0.357703 c 0.235467,0 0.370544,-0.0059 0.395279,-0.01712 0.04259,-0.0194 0.08413,-0.09584 0.08413,-0.154789 0,-0.05726 -0.03773,-0.138836 -0.07292,-0.157669 -0.02003,-0.01072 -0.203884,-0.01624 -0.540719,-0.01624 -0.445195,0 -0.512862,0.003 -0.529936,0.02358 -0.02031,0.02448 -0.04076,1.118839 -0.04319,2.311457 l -0.0011,0.523229 0.0639,0.02973 c 0.07392,0.03439 0.148576,0.02949 0.20639,-0.01357 z m -0.608598,3.563812 c -0.193852,-0.139397 -0.743799,-0.543067 -1.841882,-1.351927 -0.224059,-0.165044 -0.265858,-0.202066 -0.28153,-0.249353 -0.0154,-0.04648 -0.05186,-0.391554 -0.08686,-0.822376 l -0.0079,-0.09773 0.479265,-0.537934 c 0.263597,-0.295863 0.483173,-0.54184 0.487948,-0.546614 0.0048,-0.0048 0.04335,0.101974 0.08572,0.237219 0.280312,0.894708 0.583411,1.776868 0.776751,2.260692 0.127594,0.3193 0.404731,0.889255 0.58306,1.199102 0.02261,0.03928 0.03883,0.07137 0.03606,0.0713 -0.0028,-3.4e-5 -0.106536,-0.07312 -0.230581,-0.162342 z m -2.285437,-1.677783 c -0.02481,-0.01903 -0.138076,-0.103823 -0.251705,-0.188427 -0.113627,-0.0846 -0.237704,-0.182048 -0.275723,-0.216543 l -0.06913,-0.06271 0.18551,-0.106876 c 0.30971,-0.178435 0.390887,-0.220065 0.402982,-0.206666 0.0064,0.0071 0.02285,0.158298 0.03662,0.336097 0.01377,0.177797 0.02898,0.35879 0.0338,0.402206 0.0049,0.04342 0.0029,0.07862 -0.0043,0.07823 -0.0072,-3.88e-4 -0.0333,-0.01628 -0.05812,-0.03531 z m 6.382685,-0.233302 c -1.07703,-0.84623 -2.217182,-1.760657 -2.222226,-1.782274 -0.0076,-0.03265 0.198743,-2.006126 0.25429,-2.43184 l 0.01703,-0.130573 0.197348,-0.146761 c 0.108542,-0.08072 0.589783,-0.427034 1.069423,-0.769589 l 0.872074,-0.622828 0.0046,0.343839 c 0.0055,0.414101 -0.01803,1.497476 -0.111359,5.117695 -0.0053,0.202607 -0.01379,0.38982 -0.01904,0.416028 l -0.0095,0.04765 z m -7.072945,-0.358429 c -0.02852,-0.138398 -0.688175,-4.667265 -0.680863,-4.674465 0.0015,-0.0015 0.114509,0.09919 0.250957,0.223874 0.639632,0.584478 1.117068,0.942247 1.504034,1.127047 l 0.158327,0.07561 0.07816,0.310215 c 0.04299,0.170619 0.144985,0.557178 0.226658,0.859021 0.08167,0.301843 0.152978,0.567377 0.158463,0.590076 0.009,0.03708 -0.01408,0.06919 -0.226445,0.315751 -0.130028,0.150965 -0.357037,0.410333 -0.504468,0.576374 l -0.268054,0.301894 -0.228793,0.12199 c -0.257502,0.137297 -0.415769,0.213929 -0.44186,0.213946 -0.0097,8e-6 -0.02144,-0.01859 -0.02612,-0.04134 z m 1.035298,-3.426855 C 26.175901,23.553351 25.69175,23.176441 25.118154,22.623925 l -0.208458,-0.200798 1.455574,-2.179203 1.455575,-2.179203 0.03525,0.119303 c 0.107907,0.365164 0.39225,0.961727 0.775188,1.626361 0.172864,0.300023 0.201563,0.379113 0.177139,0.488107 -0.09409,0.419844 -0.61461,1.440292 -1.306177,2.560672 -0.375217,0.607876 -0.639702,1.012826 -0.676266,1.035424 -0.0068,0.0042 -0.09323,-0.03657 -0.19204,-0.09063 z m 4.045909,-0.716381 c -0.01251,-0.01909 -0.1032,-0.233916 -0.201535,-0.477386 -0.242021,-0.599236 -0.373648,-0.895438 -0.610971,-1.37489 -0.216188,-0.43676 -0.324338,-0.627022 -0.457,-0.803985 -0.110642,-0.147588 -0.292893,-0.325892 -0.356687,-0.34896 -0.02794,-0.0101 -0.0508,-0.02696 -0.0508,-0.03746 0,-0.0105 0.09923,-0.166452 0.220515,-0.346562 l 0.220517,-0.327472 0.101627,-0.466109 c 0.110123,-0.505073 0.18407,-0.821175 0.20538,-0.877947 0.01254,-0.03341 0.03414,-0.0122 0.306202,0.300715 0.669264,0.769755 2.388084,2.780937 2.730415,3.194841 l 0.06331,0.07654 -0.04827,0.03578 c -0.758674,0.562378 -2.057028,1.487605 -2.087528,1.487605 -0.0068,0 -0.02267,-0.01562 -0.03517,-0.03471 z m -1.913496,-3.201737 c -0.282024,-0.475607 -0.514036,-0.919844 -0.666214,-1.275618 -0.105891,-0.247567 -0.217338,-0.574131 -0.206008,-0.603656 0.0063,-0.01647 0.154502,-0.0256 0.750008,-0.04619 0.408172,-0.01411 0.80641,-0.02644 0.884973,-0.02741 l 0.142839,-0.0017 -0.0047,0.04322 c -0.0049,0.04525 -0.264398,1.240706 -0.287441,1.324306 -0.02221,0.08057 -0.477357,0.741222 -0.510656,0.741222 -0.0063,0 -0.05253,-0.06935 -0.102797,-0.154117 z"
     id="path973" />
</svg>
